<?xml version="1.0" encoding="UTF-8"?>
<svg id="Layer_2" data-name="Layer 2" xmlns="http://www.w3.org/2000/svg" viewBox="0 0 390.4 29.24">
  <defs>
    <style>
      .cls-1 {
        fill: #fd2b25;
      }

      .cls-1, .cls-2, .cls-3, .cls-4, .cls-5 {
        stroke-width: 0px;
      }

      .cls-2 {
        fill: #676c72;
      }

      .cls-3 {
        fill: #00aa47;
      }

      .cls-4 {
        fill: #1f86fb;
      }

      .cls-5 {
        fill: #ffb800;
      }
    </style>
  </defs>
  <g id="Layer_1-2" data-name="Layer 1">
    <g>
      <path class="cls-1" d="M14.39,14.68l9.81-5.67c1.11-.64,1.92-1.69,2.25-2.93.33-1.24.16-2.55-.48-3.66-.64-1.11-1.69-1.92-2.93-2.25-1.24-.33-2.55-.16-3.66.48L2.42,10.44l11.97,4.24Z"/>
      <path class="cls-4" d="M21.77,29.24c1.06,0,2.1-.34,2.95-.99.85-.65,1.45-1.55,1.73-2.58.28-1.03.21-2.12-.2-3.1-.41-.98-1.13-1.8-2.05-2.33L7.24,10.44c-.55-.32-1.15-.52-1.78-.6-.63-.08-1.27-.04-1.88.12-.61.16-1.19.45-1.69.83-.5.39-.92.87-1.24,1.42-.32.55-.52,1.16-.6,1.78-.08.63-.04,1.27.12,1.88.16.61.45,1.19.83,1.69.39.5.87.92,1.42,1.24l16.95,9.84c.73.41,1.56.62,2.4.6Z"/>
      <path class="cls-5" d="M38.63,29.24c.85,0,1.68-.22,2.41-.66l16.91-9.78-11.81-4.38-9.97,5.76c-.92.53-1.64,1.35-2.05,2.33-.41.98-.48,2.07-.2,3.1.28,1.03.89,1.93,1.73,2.58.85.65,1.88.99,2.95.99l.03.06Z"/>
      <path class="cls-3" d="M55.57,19.45c1.06,0,2.1-.35,2.94-1,.84-.65,1.45-1.55,1.72-2.58.28-1.03.2-2.12-.2-3.1-.41-.98-1.13-1.8-2.05-2.33L41.04.65c-1.11-.64-2.43-.82-3.66-.49-1.24.33-2.29,1.14-2.93,2.25-.64,1.11-.82,2.43-.49,3.66.33,1.24,1.14,2.29,2.25,2.93l16.95,9.79c.73.42,1.57.64,2.41.64Z"/>
      <path class="cls-2" d="M72.59,19.56c-1.27-.72-2.32-1.77-3.05-3.04-.75-1.32-1.14-2.82-1.14-4.34s.39-3.01,1.14-4.34c.72-1.28,1.78-2.33,3.06-3.06,1.29-.73,2.75-1.11,4.24-1.08,1.15,0,2.3.21,3.37.64.99.38,1.88,1,2.59,1.79l-1.33,1.4c-.53-.65-1.22-1.15-1.99-1.46-.93-.38-1.93-.55-2.93-.5-1,.05-1.98.33-2.86.81-.99.55-1.81,1.36-2.37,2.34-.59,1.06-.9,2.26-.9,3.48s.31,2.41.9,3.48c.57.98,1.39,1.79,2.37,2.34.98.55,2.08.83,3.2.82.86.04,1.72-.1,2.53-.42.8-.32,1.53-.81,2.12-1.43.41-.45.73-.97.95-1.54.24-.64.39-1.3.43-1.98h-5.99v-1.79h7.79c.07.39.11.78.12,1.18,0,.99-.16,1.98-.48,2.92-.32.93-.84,1.78-1.53,2.48-.77.8-1.69,1.44-2.72,1.85s-2.13.61-3.24.57c-1.5.01-2.98-.38-4.28-1.14Z"/>
      <path class="cls-2" d="M89.05,19.92c-.87-.52-1.58-1.27-2.05-2.17-.48-.94-.74-1.99-.74-3.05s.25-2.11.74-3.05c.47-.9,1.18-1.65,2.05-2.17.9-.53,1.93-.8,2.97-.78,1.05-.01,2.08.25,2.99.78.88.52,1.59,1.27,2.06,2.17.48.94.74,1.99.74,3.05s-.25,2.11-.74,3.05c-.47.9-1.19,1.65-2.06,2.17-.91.53-1.94.8-2.99.78-1.04.02-2.07-.25-2.97-.78ZM93.93,18.43c.6-.36,1.09-.87,1.42-1.49.35-.69.53-1.46.53-2.24s-.18-1.54-.53-2.24c-.33-.62-.82-1.13-1.42-1.49-.58-.34-1.24-.52-1.91-.52-.66,0-1.31.18-1.88.52-.6.35-1.09.87-1.42,1.49-.36.69-.54,1.46-.54,2.24s.19,1.55.54,2.24c.32.63.8,1.16,1.41,1.53.57.34,1.21.52,1.88.52.67,0,1.32-.18,1.9-.52l.02-.04Z"/>
      <path class="cls-2" d="M101.89,19.92c-.87-.52-1.58-1.27-2.05-2.17-.48-.94-.74-1.99-.74-3.05s.25-2.11.74-3.05c.47-.9,1.18-1.65,2.05-2.17.9-.53,1.93-.8,2.97-.78,1.05-.01,2.08.25,2.99.78.88.52,1.59,1.27,2.06,2.17.48.94.74,1.99.74,3.05s-.25,2.11-.74,3.05c-.47.9-1.18,1.65-2.06,2.17-.91.53-1.94.8-2.99.78-1.04.01-2.07-.26-2.97-.78ZM106.77,18.43c.6-.36,1.09-.87,1.42-1.49.35-.69.53-1.46.53-2.24s-.18-1.54-.53-2.24c-.33-.62-.82-1.13-1.42-1.49-.58-.34-1.24-.52-1.91-.52-.66,0-1.31.18-1.88.52-.6.36-1.09.87-1.42,1.49-.35.69-.53,1.46-.53,2.24s.18,1.54.53,2.24c.33.62.82,1.13,1.42,1.49.57.34,1.22.52,1.88.52.67.02,1.33-.15,1.91-.48v-.04Z"/>
      <path class="cls-2" d="M114.22,24.62c-.79-.57-1.4-1.35-1.75-2.27l1.79-.75c.22.66.65,1.23,1.21,1.63.61.42,1.34.64,2.08.62.51.03,1.02-.06,1.49-.24s.9-.47,1.26-.84c.69-.81,1.03-1.85.96-2.91v-1.2h-.09c-.4.6-.94,1.09-1.57,1.43-.71.39-1.5.58-2.31.56-.94,0-1.86-.26-2.66-.77-.83-.53-1.51-1.28-1.95-2.17-.48-.95-.73-2.01-.73-3.07s.25-2.12.73-3.07c.44-.89,1.12-1.63,1.95-2.17.79-.51,1.72-.78,2.66-.77.81-.02,1.6.18,2.31.56.63.34,1.17.83,1.57,1.43h.09v-1.64h1.84v10.84c.03,1.1-.22,2.18-.73,3.15-.45.83-1.14,1.5-1.98,1.93-.89.43-1.86.65-2.85.63-1.18.07-2.36-.26-3.34-.92ZM119.4,18.48c.57-.36,1.04-.87,1.34-1.47.34-.71.51-1.48.51-2.27s-.17-1.56-.51-2.27c-.3-.61-.77-1.12-1.34-1.47-.56-.33-1.19-.5-1.84-.5s-1.28.17-1.84.5c-.57.36-1.04.87-1.34,1.47-.34.71-.51,1.48-.51,2.26s.17,1.55.51,2.26c.31.6.77,1.11,1.34,1.47.56.33,1.19.51,1.84.51s1.29-.18,1.84-.51h0Z"/>
      <path class="cls-2" d="M125.74,4.09h1.93v16.26h-1.93V4.09Z"/>
      <path class="cls-2" d="M132.23,19.93c-.86-.52-1.55-1.27-2.01-2.17-.5-.95-.75-2.01-.73-3.09-.01-1.04.22-2.07.68-3,.44-.89,1.11-1.64,1.94-2.17.86-.55,1.87-.83,2.89-.8,1.01-.03,2,.23,2.87.74.82.49,1.48,1.21,1.9,2.07.45.97.67,2.02.65,3.09.02.15.02.3,0,.46h-8.94c0,.77.22,1.52.62,2.17.34.54.82.97,1.39,1.26.54.29,1.14.43,1.76.43.68,0,1.36-.2,1.93-.57.58-.37,1.03-.9,1.32-1.52l1.7.82c-.47.88-1.16,1.63-2.01,2.17-.92.57-1.99.86-3.08.82-1.01.03-2.01-.21-2.89-.7ZM138.4,13.42c-.04-.47-.17-.93-.39-1.35-.25-.48-.62-.88-1.08-1.16-.59-.34-1.26-.51-1.94-.48-.8,0-1.57.29-2.17.81-.64.56-1.06,1.33-1.18,2.17h6.76Z"/>
      <path class="cls-2" d="M147.81,4.09h4.92c1.51-.02,3.01.35,4.34,1.08,1.21.66,2.2,1.66,2.86,2.87.66,1.31,1,2.75,1,4.22s-.34,2.91-1,4.22c-.65,1.22-1.65,2.21-2.86,2.87-1.33.73-2.82,1.1-4.34,1.08h-4.92V4.09ZM152.73,18.47c.86.05,1.71-.08,2.52-.37.81-.29,1.54-.75,2.17-1.34.62-.59,1.12-1.3,1.46-2.09.34-.79.51-1.64.51-2.5s-.18-1.71-.51-2.5c-.34-.79-.84-1.5-1.46-2.09-.62-.59-1.36-1.04-2.17-1.34-.81-.29-1.66-.42-2.52-.37h-2.98v12.57h2.98Z"/>
      <path class="cls-2" d="M165.32,19.93c-.86-.52-1.56-1.27-2.01-2.17-.5-.95-.75-2.01-.73-3.09-.01-1.04.22-2.07.68-3,.43-.89,1.1-1.64,1.94-2.17.86-.55,1.86-.82,2.88-.8,1.01-.03,2,.23,2.87.74.82.49,1.48,1.21,1.9,2.07.46.96.68,2.02.66,3.09.02.15.02.3,0,.46h-8.94c0,.76.21,1.51.61,2.17.35.55.84,1,1.42,1.3.54.28,1.15.43,1.76.43.69,0,1.36-.2,1.93-.57.58-.37,1.03-.9,1.32-1.52l1.7.82c-.47.88-1.16,1.63-2.01,2.17-.91.53-1.94.81-2.99.82-1.05,0-2.09-.26-3-.77v.02ZM171.48,13.42c-.03-.47-.16-.94-.38-1.35-.25-.48-.62-.88-1.08-1.16-.59-.34-1.26-.51-1.94-.48-.8,0-1.57.29-2.17.81-.63.57-1.05,1.33-1.18,2.17h6.75Z"/>
      <path class="cls-2" d="M173.98,9.07h2.08l3.46,8.99,3.49-8.99h2.05l-4.61,11.26h-1.95l-4.52-11.26Z"/>
      <path class="cls-2" d="M188.63,19.93c-.86-.52-1.55-1.27-2.01-2.17-.5-.95-.75-2.02-.73-3.09-.01-1.04.22-2.07.68-3,.44-.89,1.11-1.64,1.94-2.17.87-.55,1.87-.83,2.89-.8,1.01-.02,2,.23,2.87.74.82.49,1.48,1.21,1.89,2.07.46.96.68,2.02.66,3.09.02.15.02.3,0,.46h-8.94c0,.76.21,1.51.61,2.17.34.53.81.96,1.37,1.26.55.28,1.15.43,1.77.43.68,0,1.36-.2,1.93-.57.58-.37,1.03-.9,1.32-1.52l1.7.82c-.47.88-1.16,1.63-2.01,2.17-.91.53-1.94.81-2.99.82-1.05,0-2.09-.26-3.01-.77l.04.07ZM194.79,13.42c-.04-.47-.17-.93-.39-1.36-.25-.48-.62-.88-1.08-1.16-.59-.34-1.26-.51-1.94-.48-.8,0-1.57.29-2.17.81-.63.57-1.04,1.33-1.17,2.17h6.75Z"/>
      <path class="cls-2" d="M198.78,4.09h1.92v16.26h-1.93V4.09Z"/>
      <path class="cls-2" d="M205.34,19.92c-.87-.52-1.58-1.27-2.05-2.17-.48-.94-.74-1.99-.74-3.05s.25-2.11.74-3.05c.47-.9,1.18-1.65,2.05-2.17.9-.51,1.91-.78,2.95-.76,1.05-.01,2.08.25,2.99.78.88.52,1.59,1.27,2.06,2.17.48.94.74,1.99.74,3.05s-.25,2.11-.74,3.05c-.47.9-1.18,1.65-2.06,2.17-.91.53-1.94.8-2.99.78-1.04,0-2.06-.27-2.95-.8ZM210.22,18.43c.6-.36,1.09-.87,1.42-1.49.35-.69.53-1.46.53-2.24s-.18-1.54-.53-2.24c-.33-.62-.82-1.13-1.42-1.49-.58-.34-1.24-.52-1.91-.52-.66,0-1.31.18-1.88.52-.6.36-1.09.87-1.42,1.49-.35.69-.53,1.46-.53,2.24s.18,1.54.53,2.24c.33.62.82,1.13,1.42,1.49.57.34,1.21.52,1.88.52.67.02,1.33-.15,1.91-.48v-.04Z"/>
      <path class="cls-2" d="M215.88,9.08h1.83v1.66h.1c.39-.6.93-1.1,1.56-1.44.72-.4,1.54-.6,2.36-.57.95,0,1.88.27,2.68.78.83.54,1.5,1.29,1.95,2.17.48.95.73,2,.73,3.06s-.25,2.11-.73,3.06c-.45.88-1.12,1.63-1.95,2.17-.8.51-1.73.78-2.68.78-.83.01-1.64-.18-2.37-.57-.64-.34-1.17-.85-1.55-1.46h-.1l.1,1.56v5.02h-1.93V9.08ZM223.28,18.43c.58-.37,1.05-.88,1.37-1.49.34-.7.51-1.46.51-2.24s-.17-1.54-.51-2.24c-.32-.61-.79-1.12-1.37-1.48-.55-.34-1.19-.52-1.84-.52-.65,0-1.29.17-1.85.51-.58.36-1.05.87-1.37,1.47-.33.7-.51,1.47-.51,2.25s.17,1.55.51,2.25c.3.62.77,1.14,1.34,1.52.56.34,1.2.51,1.85.51.65,0,1.29-.17,1.84-.51l.02-.04Z"/>
      <path class="cls-2" d="M231.56,19.93c-.86-.52-1.55-1.27-2.01-2.17-.5-.95-.75-2.02-.73-3.09,0-1.04.22-2.07.68-3,.44-.89,1.11-1.64,1.94-2.17.85-.53,1.85-.8,2.85-.78,1.01-.03,2,.23,2.87.74.82.49,1.48,1.21,1.9,2.07.45.97.67,2.02.65,3.09.02.15.02.3,0,.46h-8.94c0,.77.22,1.52.62,2.17.35.56.84,1.01,1.42,1.3.54.29,1.14.43,1.76.43.69,0,1.36-.2,1.93-.57.58-.37,1.04-.9,1.32-1.52l1.71.82c-.48.88-1.17,1.63-2.02,2.17-.92.57-1.99.86-3.07.82-1.02.01-2.02-.26-2.89-.77ZM237.73,13.43c-.04-.47-.17-.93-.39-1.36-.25-.48-.62-.88-1.08-1.16-.59-.34-1.26-.51-1.94-.48-.8,0-1.57.29-2.17.81-.64.56-1.05,1.33-1.18,2.17h6.76Z"/>
      <path class="cls-2" d="M241.72,9.07h1.84v1.81h.09c.24-.66.71-1.22,1.31-1.57.58-.4,1.26-.62,1.96-.63.45,0,.89.07,1.31.23v2.06c-.49-.24-1.04-.36-1.58-.34-.53,0-1.05.16-1.48.47-.46.31-.83.74-1.08,1.24-.27.52-.41,1.09-.41,1.68v6.29h-1.93l-.02-11.23Z"/>
      <path class="cls-2" d="M256.69,20.19c-.8-.36-1.51-.9-2.07-1.58-.56-.67-.97-1.47-1.18-2.32l1.83-.75c.23.92.73,1.75,1.43,2.38.66.6,1.53.93,2.43.92.87.03,1.71-.24,2.41-.76.32-.24.57-.56.74-.92s.25-.76.23-1.15c0-.35-.06-.71-.2-1.03-.14-.32-.35-.61-.62-.84-.81-.62-1.73-1.09-2.71-1.38l-1.03-.36c-1.04-.34-1.99-.89-2.81-1.62-.37-.36-.66-.79-.84-1.26-.19-.48-.27-.99-.24-1.5,0-.77.22-1.52.64-2.17.44-.67,1.04-1.22,1.76-1.58.79-.4,1.66-.6,2.54-.59.85-.02,1.69.16,2.46.52.64.3,1.21.73,1.68,1.27.38.44.66.94.85,1.49l-1.79.77c-.2-.61-.58-1.14-1.08-1.54-.6-.47-1.35-.7-2.1-.66-.78-.03-1.55.22-2.17.7-.28.2-.5.47-.66.78-.15.31-.23.65-.23.99,0,.3.06.59.19.86.13.27.32.5.56.69.69.49,1.46.85,2.28,1.08l1.08.36c1.2.39,2.31,1.03,3.25,1.88.4.4.71.88.91,1.4.2.53.29,1.09.26,1.65.02.94-.26,1.87-.8,2.63-.52.69-1.23,1.23-2.04,1.56-.8.33-1.67.5-2.54.5-.83.02-1.64-.13-2.41-.44Z"/>
      <path class="cls-2" d="M269.12,20.47c-.37-.14-.7-.36-.99-.63-.3-.29-.53-.64-.66-1.03-.16-.45-.23-.92-.22-1.4v-6.59h-1.99v-1.75h1.99v-3.36h1.91v3.36h2.76v1.75h-2.76v6.14c-.04.51.09,1.02.38,1.44.14.17.32.31.53.4.2.09.43.13.65.11.43,0,.86-.1,1.22-.33v1.86c-.23.08-.46.15-.69.2-.29.04-.58.06-.87.05-.43,0-.86-.07-1.27-.23Z"/>
      <path class="cls-2" d="M274.94,19.49c-.77-.94-1.15-2.13-1.08-3.34v-7.08h1.93v6.76c0,2.07.93,3.11,2.79,3.11.6,0,1.18-.17,1.67-.52.5-.34.89-.82,1.14-1.37.26-.55.4-1.16.4-1.77v-6.22h1.91v11.26h-1.82v-1.68h-.09c-.37.61-.89,1.11-1.52,1.45-.66.39-1.4.59-2.17.59-.58.04-1.16-.05-1.71-.26-.55-.21-1.04-.53-1.45-.95Z"/>
      <path class="cls-2" d="M288.23,19.93c-.83-.53-1.51-1.28-1.95-2.17-.48-.95-.73-2.01-.73-3.07s.25-2.12.73-3.07c.44-.88,1.12-1.63,1.95-2.17.8-.51,1.73-.78,2.68-.77.82-.02,1.64.18,2.36.57.64.34,1.18.84,1.57,1.44h.09l-.09-1.54v-5.11h1.9v16.26h-1.81v-1.68h-.09c-.39.62-.93,1.12-1.57,1.46-.73.39-1.54.59-2.36.57-.94.01-1.87-.24-2.68-.74ZM293.05,18.44c.58-.36,1.06-.87,1.37-1.49.34-.7.51-1.47.51-2.25s-.17-1.55-.51-2.25c-.31-.61-.78-1.12-1.37-1.47-.56-.34-1.19-.51-1.84-.51-.65,0-1.3.18-1.85.52-.58.37-1.05.88-1.37,1.49-.33.7-.51,1.46-.51,2.24s.17,1.54.51,2.24c.32.61.79,1.12,1.37,1.49.56.34,1.2.53,1.85.52.65.01,1.28-.15,1.84-.48v-.03Z"/>
      <path class="cls-2" d="M301.33,19.93c-.86-.52-1.55-1.27-2.01-2.17-.5-.95-.75-2.01-.73-3.09-.01-1.04.22-2.07.68-3,.44-.89,1.11-1.64,1.94-2.17.86-.55,1.87-.83,2.89-.8,1.01-.03,2,.23,2.87.74.82.49,1.48,1.21,1.9,2.07.45.97.67,2.02.65,3.09.02.15.02.3,0,.46h-8.94c0,.77.22,1.52.62,2.17.34.54.82.97,1.39,1.26.54.29,1.14.43,1.76.43.69,0,1.36-.2,1.93-.57.58-.37,1.04-.9,1.32-1.52l1.7.82c-.47.88-1.16,1.63-2.01,2.17-.92.57-1.99.86-3.08.82-1.01.03-2.01-.21-2.89-.7ZM307.5,13.42c-.04-.47-.17-.93-.39-1.35-.25-.48-.62-.88-1.08-1.16-.59-.34-1.26-.51-1.94-.48-.8,0-1.57.29-2.17.81-.64.56-1.05,1.33-1.18,2.17h6.76Z"/>
      <path class="cls-2" d="M311.49,9.08h1.84v1.68h.11c.36-.61.88-1.11,1.5-1.45.66-.38,1.41-.58,2.17-.59.58-.04,1.16.05,1.7.25.54.21,1.03.53,1.44.95.76.91,1.14,2.07,1.08,3.25v7.13h-1.91v-6.84c0-2.03-.94-3.04-2.84-3.04-.58,0-1.15.18-1.63.52-.48.35-.85.82-1.08,1.37-.29.56-.44,1.19-.43,1.82v6.22h-1.95v-11.28Z"/>
      <path class="cls-2" d="M326.35,20.47c-.37-.14-.7-.36-.99-.63-.3-.28-.53-.64-.67-1.03-.15-.45-.23-.92-.22-1.4v-6.59h-1.99v-1.75h1.99v-3.36h1.91v3.36h2.76v1.75h-2.76v6.14c-.04.51.1,1.02.38,1.44.14.17.32.31.53.4.21.09.43.13.65.11.43,0,.86-.1,1.23-.33v1.86c-.23.08-.46.15-.69.2-.29.04-.58.06-.87.05-.43,0-.86-.07-1.26-.23Z"/>
      <path class="cls-2" d="M339.46,19.56c-1.27-.72-2.32-1.78-3.04-3.06-.73-1.33-1.11-2.82-1.11-4.34s.38-3.01,1.11-4.34c.71-1.28,1.76-2.34,3.04-3.06,1.3-.74,2.77-1.11,4.26-1.08,1.15-.01,2.28.22,3.33.69,1,.45,1.89,1.12,2.6,1.96l-1.36,1.34c-.54-.7-1.23-1.26-2.03-1.64-.8-.36-1.68-.54-2.56-.52-1.14-.01-2.26.27-3.25.82-.98.55-1.8,1.36-2.35,2.34-.57,1.07-.87,2.27-.87,3.48s.3,2.41.87,3.48c.56.98,1.37,1.79,2.35,2.34.99.55,2.12.84,3.25.82.97,0,1.93-.21,2.8-.63.87-.42,1.64-1.04,2.24-1.8l1.39,1.37c-.75.92-1.7,1.66-2.77,2.17-1.14.53-2.39.8-3.65.78-1.49,0-2.95-.39-4.24-1.15Z"/>
      <path class="cls-2" d="M352.05,4.09h1.93v16.26h-1.93V4.09Z"/>
      <path class="cls-2" d="M357.55,19.49c-.77-.94-1.15-2.13-1.08-3.34v-7.08h1.93v6.76c0,2.07.93,3.11,2.79,3.11.6,0,1.18-.17,1.67-.52.5-.34.89-.82,1.14-1.37.26-.55.4-1.16.4-1.77v-6.22h1.91v11.26h-1.82v-1.68h-.09c-.37.61-.89,1.11-1.52,1.45-.66.39-1.4.59-2.17.59-.58.04-1.16-.05-1.71-.26-.54-.21-1.04-.53-1.45-.95Z"/>
      <path class="cls-2" d="M372.4,20.12c-.64-.34-1.18-.85-1.56-1.46h-.09v1.68h-1.84V4.08h1.98v5.11l-.09,1.54h.09c.4-.6.94-1.1,1.57-1.44.72-.4,1.53-.59,2.35-.57.95,0,1.89.27,2.69.78.83.54,1.5,1.29,1.95,2.17.48.95.73,2,.73,3.06s-.25,2.11-.73,3.06c-.45.88-1.12,1.63-1.95,2.17-.8.51-1.73.79-2.69.78-.85.01-1.68-.2-2.42-.61ZM376.31,18.47c.58-.37,1.05-.88,1.37-1.49.33-.7.51-1.46.51-2.24s-.17-1.54-.51-2.24c-.32-.61-.79-1.12-1.37-1.49-.56-.34-1.2-.53-1.85-.52-.65,0-1.29.17-1.84.51-.59.35-1.06.86-1.36,1.47-.34.7-.51,1.47-.51,2.25s.17,1.55.51,2.25c.31.61.79,1.12,1.38,1.47.56.34,1.19.51,1.84.51.65,0,1.29-.17,1.84-.51Z"/>
      <path class="cls-2" d="M382.89,19.79c-.8-.55-1.41-1.33-1.74-2.24l1.7-.75c.26.66.7,1.23,1.28,1.64.53.37,1.16.57,1.81.56.63.02,1.26-.15,1.8-.48.21-.11.39-.28.51-.49.12-.2.2-.44.2-.67,0-.21-.04-.42-.14-.61s-.23-.35-.4-.48c-.55-.38-1.18-.63-1.83-.75l-1.54-.39c-.8-.18-1.54-.55-2.17-1.08-.29-.25-.53-.57-.68-.92-.16-.35-.23-.74-.22-1.13-.01-.65.2-1.28.61-1.79.42-.51.97-.91,1.59-1.14.69-.26,1.43-.39,2.17-.38.92-.01,1.84.21,2.65.66.76.42,1.36,1.09,1.69,1.9l-1.7.73c-.21-.51-.6-.94-1.08-1.2-.51-.26-1.08-.39-1.65-.38-.56,0-1.12.14-1.61.42-.2.1-.38.26-.5.45-.13.19-.2.41-.21.64,0,.18.03.36.11.53.08.16.2.3.35.41.46.29.96.49,1.49.61l1.68.41c.94.19,1.81.63,2.51,1.28.27.27.48.59.62.94.14.35.21.73.2,1.1,0,.63-.19,1.25-.56,1.77-.41.55-.96.98-1.59,1.25-.73.31-1.52.47-2.31.46-1.08.05-2.15-.25-3.05-.86Z"/>
    </g>
  </g>
</svg>