<svg width="391" height="30" viewBox="0 0 391 30" fill="none" xmlns="http://www.w3.org/2000/svg">
<path d="M14.3872 14.6774L24.1947 9.0063C25.3034 8.36668 26.1126 7.31284 26.4442 6.07662C26.7759 4.84039 26.6029 3.52304 25.9633 2.41437C25.3237 1.3057 24.2698 0.496528 23.0336 0.164857C21.7974 -0.166813 20.48 0.00618476 19.3714 0.645802L2.4165 10.4387L14.3872 14.6774Z" fill="#FD2B25"/>
<path d="M21.7663 29.2392C22.8303 29.2436 23.8659 28.896 24.7119 28.2507C25.5579 27.6053 26.1667 26.6983 26.4435 25.6709C26.7204 24.6435 26.6498 23.5534 26.2426 22.5703C25.8355 21.5872 25.1147 20.7664 24.1926 20.2356L7.23772 10.4427C6.68876 10.126 6.0828 9.92048 5.45443 9.83796C4.82606 9.75544 4.18759 9.79749 3.57547 9.96172C2.96336 10.1259 2.38957 10.4091 1.8869 10.7951C1.38422 11.1811 0.962484 11.6623 0.645778 12.2112C0.329071 12.7602 0.123608 13.3662 0.0410862 13.9945C-0.0414353 14.6229 0.000616949 15.2614 0.164844 15.8735C0.32907 16.4856 0.612253 17.0594 0.998226 17.5621C1.3842 18.0647 1.8654 18.4865 2.41435 18.8032L19.3692 28.6399C20.0993 29.053 20.9277 29.2601 21.7663 29.2392Z" fill="#1F86FB"/>
<path d="M38.6314 29.2379C39.48 29.2408 40.3135 29.0134 41.0431 28.5801L57.9541 18.8019L46.1442 14.417L36.1759 20.1758C35.2537 20.7066 34.533 21.5275 34.1258 22.5106C33.7187 23.4936 33.6481 24.5837 33.9249 25.6111C34.2018 26.6385 34.8106 27.5455 35.6566 28.1909C36.5025 28.8363 37.5382 29.1838 38.6022 29.1794L38.6314 29.2379Z" fill="#FFB800"/>
<path d="M55.5717 19.446C56.6345 19.4472 57.6679 19.0973 58.5114 18.4507C59.3549 17.8042 59.9612 16.8972 60.2362 15.8706C60.5112 14.844 60.4394 13.7553 60.032 12.7737C59.6246 11.7921 58.9045 10.9726 57.9834 10.4424L41.0431 0.649464C39.9345 0.00790785 38.6164 -0.166956 37.3788 0.163344C36.1412 0.493645 35.0854 1.30205 34.4439 2.41073C33.8023 3.5194 33.6275 4.83752 33.9578 6.07511C34.2881 7.31271 35.0965 8.36841 36.2052 9.00996L53.16 18.8029C53.8933 19.2258 54.7252 19.4476 55.5717 19.446Z" fill="#00AA47"/>
<path d="M72.5853 19.5594C71.3156 18.8399 70.2633 17.7914 69.5392 16.5242C68.7927 15.2011 68.4004 13.7075 68.4004 12.1882C68.4004 10.669 68.7927 9.17543 69.5392 7.85224C70.2632 6.57575 71.3196 5.51934 72.5961 4.79536C73.8874 4.06362 75.3505 3.68943 76.8346 3.71136C77.989 3.70549 79.1337 3.92266 80.2058 4.35093C81.198 4.73506 82.0857 5.34786 82.7966 6.13953L81.4632 7.53789C80.9328 6.88926 80.2466 6.38576 79.4687 6.07448C78.5417 5.6908 77.5405 5.51988 76.5387 5.57429C75.5369 5.62869 74.5601 5.90703 73.6801 6.38884C72.6931 6.9423 71.8732 7.75103 71.3062 8.73029C70.7158 9.79504 70.4061 10.9925 70.4061 12.2099C70.4061 13.4274 70.7158 14.6248 71.3062 15.6896C71.8732 16.6688 72.6931 17.4775 73.6801 18.031C74.6574 18.5761 75.7589 18.8599 76.8779 18.8549C77.7405 18.8957 78.6017 18.7514 79.4039 18.4317C80.206 18.112 80.9304 17.6242 81.5283 17.0012C81.9336 16.5477 82.2565 16.0267 82.4822 15.4619C82.7253 14.8261 82.8714 14.1574 82.9158 13.4782H76.9213V11.6896H84.7152C84.7898 12.0792 84.8297 12.4746 84.8345 12.8712C84.834 13.8625 84.6729 14.8473 84.3575 15.7871C84.0387 16.7178 83.5166 17.5658 82.8291 18.2695C82.0639 19.0733 81.1367 19.7054 80.1089 20.124C79.0811 20.5426 77.9761 20.7381 76.8671 20.6977C75.3633 20.7109 73.884 20.3176 72.5853 19.5594Z" fill="#676C72"/>
<path d="M89.0501 19.9188C88.1778 19.402 87.468 18.6509 87.0013 17.7508C86.5172 16.8065 86.2646 15.7606 86.2646 14.6994C86.2646 13.6382 86.5172 12.5922 87.0013 11.6479C87.468 10.7478 88.1778 9.99673 89.0501 9.47991C89.9501 8.95301 90.9774 8.68306 92.0202 8.69943C93.0697 8.68459 94.1036 8.9543 95.0121 9.47991C95.8883 9.99514 96.602 10.7464 97.0717 11.6479C97.5558 12.5922 97.8084 13.6382 97.8084 14.6994C97.8084 15.7606 97.5558 16.8065 97.0717 17.7508C96.5996 18.6506 95.8865 19.4013 95.0121 19.9188C94.1036 20.4444 93.0697 20.7142 92.0202 20.6993C90.9774 20.7157 89.9501 20.4457 89.0501 19.9188ZM93.9281 18.4338C94.528 18.0775 95.019 17.5639 95.3481 16.9487C95.6971 16.2541 95.8788 15.4875 95.8788 14.7102C95.8788 13.9329 95.6971 13.1664 95.3481 12.4718C95.019 11.8565 94.528 11.343 93.9281 10.9867C93.3514 10.6427 92.6917 10.4628 92.0202 10.4664C91.3594 10.4659 90.711 10.6458 90.1449 10.9867C89.5425 11.3399 89.0507 11.8542 88.7249 12.4718C88.3683 13.1641 88.1823 13.9315 88.1823 14.7102C88.1823 15.4889 88.3683 16.2564 88.7249 16.9487C89.0412 17.5808 89.5297 18.1106 90.1341 18.4771C90.7002 18.8179 91.3486 18.9978 92.0094 18.9974C92.6772 18.9991 93.3329 18.8192 93.9064 18.4771L93.9281 18.4338Z" fill="#676C72"/>
<path d="M101.894 19.9187C101.022 19.4019 100.312 18.6508 99.8456 17.7507C99.3614 16.8064 99.1089 15.7604 99.1089 14.6992C99.1089 13.6381 99.3614 12.5921 99.8456 11.6478C100.312 10.7477 101.022 9.99661 101.894 9.47978C102.795 8.95442 103.822 8.68459 104.864 8.69931C105.914 8.68447 106.948 8.95417 107.856 9.47978C108.733 9.99502 109.446 10.7463 109.916 11.6478C110.4 12.5921 110.653 13.6381 110.653 14.6992C110.653 15.7604 110.4 16.8064 109.916 17.7507C109.444 18.6505 108.731 19.4012 107.856 19.9187C106.948 20.4443 105.914 20.714 104.864 20.6992C103.822 20.7139 102.795 20.4441 101.894 19.9187ZM106.772 18.4336C107.372 18.0773 107.863 17.5638 108.192 16.9485C108.541 16.254 108.723 15.4874 108.723 14.7101C108.723 13.9328 108.541 13.1662 108.192 12.4716C107.863 11.8564 107.372 11.3428 106.772 10.9865C106.196 10.6425 105.536 10.4626 104.864 10.4662C104.204 10.4658 103.555 10.6457 102.989 10.9865C102.389 11.3428 101.898 11.8564 101.569 12.4716C101.22 13.1662 101.038 13.9328 101.038 14.7101C101.038 15.4874 101.22 16.254 101.569 16.9485C101.898 17.5638 102.389 18.0773 102.989 18.4336C103.555 18.7745 104.204 18.9544 104.864 18.954C105.532 18.9707 106.191 18.8058 106.772 18.477V18.4336Z" fill="#676C72"/>
<path d="M114.222 24.6217C113.429 24.0555 112.822 23.2671 112.477 22.3562L114.265 21.6082C114.486 22.2658 114.911 22.8356 115.479 23.2342C116.091 23.6541 116.819 23.8704 117.561 23.8521C118.07 23.879 118.58 23.7961 119.055 23.6091C119.53 23.4221 119.959 23.1353 120.314 22.7681C121.001 21.9619 121.347 20.9199 121.279 19.863V18.6597H121.192C120.795 19.2597 120.255 19.7515 119.62 20.0906C118.912 20.4758 118.117 20.6701 117.311 20.6543C116.371 20.6568 115.449 20.3897 114.655 19.8847C113.822 19.3509 113.147 18.6019 112.704 17.7167C112.226 16.7627 111.978 15.7104 111.978 14.6435C111.978 13.5766 112.226 12.5243 112.704 11.5704C113.147 10.6852 113.822 9.9361 114.655 9.40236C115.447 8.89274 116.37 8.62525 117.311 8.63273C118.117 8.61695 118.912 8.81122 119.62 9.19641C120.255 9.53558 120.795 10.0273 121.192 10.6273H121.279V8.99045H123.121V19.8305C123.149 20.9263 122.899 22.0114 122.395 22.9849C121.941 23.8116 121.25 24.4836 120.411 24.9144C119.523 25.3444 118.547 25.5598 117.561 25.5431C116.377 25.6094 115.204 25.2858 114.222 24.6217ZM119.403 18.4755C119.976 18.1136 120.44 17.6043 120.747 17.0012C121.083 16.2931 121.257 15.5193 121.257 14.7357C121.257 13.952 121.083 13.1782 120.747 12.4701C120.446 11.8628 119.98 11.3521 119.403 10.9959C118.845 10.6659 118.209 10.4918 117.561 10.4918C116.912 10.4918 116.276 10.6659 115.718 10.9959C115.145 11.3577 114.681 11.867 114.374 12.4701C114.038 13.1763 113.864 13.9484 113.864 14.7302C113.864 15.5121 114.038 16.2841 114.374 16.9904C114.681 17.5935 115.145 18.1027 115.718 18.4646C116.275 18.798 116.911 18.974 117.561 18.974C118.21 18.974 118.846 18.798 119.403 18.4646V18.4755Z" fill="#676C72"/>
<path d="M125.735 4.08936H127.665V20.3494H125.735V4.08936Z" fill="#676C72"/>
<path d="M132.228 19.9274C131.371 19.4043 130.677 18.6537 130.222 17.7594C129.725 16.8068 129.475 15.7444 129.496 14.67C129.485 13.6294 129.719 12.6009 130.179 11.6673C130.616 10.7813 131.287 10.0316 132.119 9.49929C132.984 8.95263 133.991 8.67357 135.013 8.69714C136.021 8.671 137.016 8.92627 137.886 9.43426C138.708 9.92354 139.367 10.6435 139.783 11.5047C140.231 12.4719 140.453 13.5283 140.433 14.5941C140.456 14.745 140.456 14.8984 140.433 15.0494H131.49C131.493 15.8151 131.707 16.5653 132.108 17.2174C132.45 17.7533 132.929 18.1876 133.496 18.4748C134.037 18.76 134.64 18.9089 135.252 18.9084C135.937 18.9066 136.608 18.7087 137.184 18.3379C137.76 17.9672 138.218 17.4392 138.504 16.8163L140.206 17.6401C139.735 18.5235 139.044 19.2703 138.2 19.8081C137.277 20.3784 136.207 20.6649 135.122 20.632C134.111 20.6625 133.111 20.419 132.228 19.9274ZM138.395 13.4234C138.358 12.95 138.226 12.489 138.005 12.0684C137.757 11.5896 137.382 11.1883 136.921 10.9085C136.333 10.5673 135.66 10.4018 134.981 10.4315C134.183 10.4274 133.411 10.7167 132.813 11.2445C132.176 11.8058 131.758 12.5734 131.631 13.4125L138.395 13.4234Z" fill="#676C72"/>
<path d="M147.812 4.0901H152.734C154.249 4.07038 155.743 4.44387 157.07 5.1741C158.281 5.83562 159.275 6.83322 159.932 8.04669C160.588 9.35551 160.929 10.7994 160.929 12.2635C160.929 13.7275 160.588 15.1714 159.932 16.4802C159.278 17.696 158.283 18.6943 157.07 19.3528C155.743 20.083 154.249 20.4565 152.734 20.4368H147.812V4.0901ZM152.734 18.4748C153.591 18.5251 154.448 18.3998 155.255 18.1066C156.062 17.8134 156.8 17.3585 157.424 16.7697C158.048 16.1809 158.546 15.4708 158.886 14.6828C159.226 13.8949 159.401 13.0458 159.401 12.1876C159.401 11.3294 159.226 10.4803 158.886 9.69233C158.546 8.90438 158.048 8.19423 157.424 7.60547C156.8 7.0167 156.062 6.56175 155.255 6.26854C154.448 5.97533 153.591 5.85005 152.734 5.90038H149.753V18.4748H152.734Z" fill="#676C72"/>
<path d="M165.32 19.9274C164.46 19.4097 163.764 18.6578 163.315 17.7594C162.818 16.8068 162.568 15.7444 162.589 14.67C162.578 13.6294 162.812 12.6009 163.272 11.6673C163.704 10.7781 164.376 10.0273 165.212 9.49929C166.073 8.9541 167.076 8.67507 168.095 8.69714C169.103 8.671 170.098 8.92627 170.968 9.43426C171.792 9.92049 172.452 10.6413 172.865 11.5047C173.322 12.4693 173.548 13.527 173.526 14.5941C173.543 14.7454 173.543 14.8981 173.526 15.0494H164.583C164.583 15.8141 164.793 16.5642 165.19 17.2174C165.537 17.7716 166.028 18.2212 166.61 18.5182C167.152 18.8022 167.755 18.9509 168.366 18.9518C169.052 18.95 169.722 18.752 170.298 18.3813C170.875 18.0105 171.333 17.4825 171.618 16.8596L173.32 17.6835C172.846 18.5646 172.156 19.3106 171.315 19.8515C170.407 20.3817 169.376 20.6656 168.325 20.6751C167.273 20.6846 166.238 20.4194 165.32 19.9057V19.9274ZM171.477 13.4234C171.449 12.9498 171.32 12.4877 171.098 12.0684C170.852 11.5883 170.476 11.1865 170.014 10.9085C169.427 10.5644 168.753 10.3987 168.074 10.4315C167.276 10.4274 166.504 10.7167 165.906 11.2445C165.276 11.8115 164.859 12.5764 164.724 13.4125L171.477 13.4234Z" fill="#676C72"/>
<path d="M173.979 9.07471H176.06L179.518 18.0611L183.009 9.07471H185.057L180.45 20.3375H178.499L173.979 9.07471Z" fill="#676C72"/>
<path d="M188.627 19.927C187.771 19.4039 187.077 18.6534 186.622 17.759C186.125 16.8064 185.875 15.744 185.896 14.6696C185.885 13.6291 186.119 12.6005 186.579 11.6669C187.016 10.7809 187.687 10.0312 188.519 9.49893C189.384 8.95227 190.391 8.67321 191.413 8.69678C192.42 8.67349 193.414 8.92856 194.286 9.4339C195.107 9.92026 195.764 10.6414 196.172 11.5043C196.629 12.4689 196.855 13.5266 196.833 14.5937C196.856 14.7447 196.856 14.8981 196.833 15.049H187.89C187.895 15.813 188.105 16.5616 188.497 17.217C188.835 17.7481 189.306 18.1816 189.863 18.4745C190.409 18.7585 191.015 18.9072 191.63 18.9081C192.315 18.9063 192.986 18.7083 193.562 18.3376C194.138 17.9668 194.596 17.4388 194.882 16.8159L196.584 17.6398C196.113 18.5231 195.423 19.2699 194.579 19.8078C193.671 20.338 192.64 20.6219 191.589 20.6314C190.537 20.6409 189.501 20.3757 188.584 19.862L188.627 19.927ZM194.795 13.423C194.758 12.9496 194.625 12.4887 194.405 12.068C194.159 11.5879 193.784 11.1862 193.321 10.9081C192.734 10.5641 192.06 10.3983 191.381 10.4312C190.583 10.427 189.811 10.7164 189.213 11.2442C188.583 11.8095 188.169 12.5757 188.042 13.4122L194.795 13.423Z" fill="#676C72"/>
<path d="M198.784 4.08936H200.703V20.3494H198.773L198.784 4.08936Z" fill="#676C72"/>
<path d="M205.343 19.9187C204.471 19.4019 203.761 18.6508 203.294 17.7507C202.81 16.8064 202.558 15.7605 202.558 14.6993C202.558 13.6381 202.81 12.5921 203.294 11.6478C203.761 10.7478 204.471 9.99664 205.343 9.47982C206.24 8.96584 207.258 8.70366 208.292 8.72102C209.341 8.70618 210.375 8.9759 211.283 9.50151C212.16 10.0167 212.873 10.768 213.343 11.6695C213.827 12.6138 214.08 13.6598 214.08 14.721C214.08 15.7822 213.827 16.8281 213.343 17.7724C212.871 18.6722 212.158 19.4229 211.283 19.9404C210.375 20.466 209.341 20.7358 208.292 20.7209C207.254 20.7251 206.235 20.4479 205.343 19.9187ZM210.221 18.4337C210.821 18.0774 211.312 17.5638 211.641 16.9486C211.99 16.254 212.172 15.4874 212.172 14.7101C212.172 13.9328 211.99 13.1663 211.641 12.4717C211.312 11.8564 210.821 11.3429 210.221 10.9866C209.644 10.6426 208.985 10.4627 208.313 10.4663C207.652 10.4658 207.004 10.6457 206.438 10.9866C205.838 11.3429 205.347 11.8564 205.018 12.4717C204.669 13.1663 204.487 13.9328 204.487 14.7101C204.487 15.4874 204.669 16.254 205.018 16.9486C205.347 17.5638 205.838 18.0774 206.438 18.4337C207.004 18.7745 207.652 18.9544 208.313 18.954C208.981 18.9707 209.64 18.8059 210.221 18.477V18.4337Z" fill="#676C72"/>
<path d="M215.88 9.07952H217.712V10.738H217.809C218.202 10.1354 218.739 9.63998 219.37 9.29631C220.093 8.89858 220.909 8.70029 221.733 8.72179C222.683 8.71772 223.613 8.98881 224.411 9.50228C225.239 10.0424 225.912 10.7898 226.362 11.6703C226.84 12.6204 227.089 13.6691 227.089 14.7326C227.089 15.796 226.84 16.8447 226.362 17.7949C225.912 18.6753 225.239 19.4227 224.411 19.9629C223.613 20.4763 222.683 20.7474 221.733 20.7434C220.906 20.7582 220.089 20.5604 219.36 20.1688C218.722 19.828 218.186 19.3228 217.809 18.7054H217.712L217.809 20.2664V25.2853H215.88V9.07952ZM223.284 18.4344C223.863 18.0693 224.334 17.5567 224.649 16.9494C224.985 16.2508 225.159 15.4858 225.159 14.7109C225.159 13.936 224.985 13.171 224.649 12.4724C224.334 11.8651 223.863 11.3525 223.284 10.9874C222.731 10.6439 222.092 10.4636 221.441 10.467C220.788 10.4634 220.147 10.6397 219.587 10.9765C219.006 11.3345 218.534 11.8442 218.221 12.4508C217.886 13.1551 217.712 13.9254 217.712 14.7055C217.712 15.4856 217.886 16.2558 218.221 16.9602C218.523 17.5789 218.988 18.1036 219.565 18.4778C220.125 18.8146 220.766 18.9909 221.419 18.9873C222.069 18.994 222.708 18.8174 223.262 18.4778L223.284 18.4344Z" fill="#676C72"/>
<path d="M231.563 19.9306C230.707 19.4075 230.012 18.657 229.558 17.7626C229.06 16.81 228.81 15.7476 228.831 14.6732C228.821 13.6326 229.055 12.6041 229.514 11.6705C229.951 10.7845 230.622 10.0348 231.455 9.50252C232.309 8.97165 233.3 8.7005 234.305 8.72204C235.313 8.6959 236.308 8.95117 237.178 9.45916C238 9.94845 238.659 10.6684 239.075 11.5296C239.523 12.4968 239.746 13.5532 239.725 14.619C239.748 14.7699 239.748 14.9233 239.725 15.0743H230.782C230.785 15.84 230.999 16.5902 231.4 17.2423C231.745 17.7986 232.236 18.2488 232.82 18.5431C233.362 18.8283 233.965 18.9771 234.576 18.9767C235.262 18.9749 235.932 18.7769 236.508 18.4062C237.085 18.0354 237.543 17.5074 237.828 16.8846L239.541 17.7084C239.063 18.5899 238.37 19.3358 237.525 19.8764C236.605 20.4458 235.538 20.7323 234.457 20.7002C233.441 20.7105 232.44 20.4444 231.563 19.9306ZM237.731 13.4266C237.694 12.9532 237.561 12.4922 237.341 12.0716C237.093 11.5928 236.718 11.1915 236.257 10.9117C235.669 10.5705 234.995 10.405 234.316 10.4348C233.518 10.4306 232.747 10.72 232.148 11.2478C231.512 11.8091 231.094 12.5767 230.967 13.4158L237.731 13.4266Z" fill="#676C72"/>
<path d="M241.72 9.07495H243.563V10.8852H243.65C243.892 10.2252 244.355 9.66966 244.961 9.31343C245.54 8.91655 246.222 8.69797 246.923 8.68471C247.371 8.68083 247.815 8.75795 248.235 8.91235V10.972C247.744 10.7284 247.2 10.6128 246.652 10.6359C246.121 10.6333 245.602 10.7962 245.167 11.102C244.706 11.4143 244.333 11.8398 244.083 12.3378C243.81 12.8556 243.669 13.4326 243.671 14.018V20.3052H241.742L241.72 9.07495Z" fill="#676C72"/>
<path d="M256.692 20.1886C255.893 19.8253 255.186 19.2869 254.623 18.6133C254.06 17.9397 253.656 17.1481 253.44 16.2971L255.272 15.5491C255.505 16.467 256.003 17.2963 256.703 17.9339C257.366 18.5381 258.234 18.8675 259.131 18.8553C259.997 18.8852 260.846 18.6174 261.538 18.0965C261.855 17.8556 262.11 17.5415 262.28 17.181C262.45 16.8205 262.53 16.4243 262.514 16.0261C262.524 15.6719 262.456 15.3198 262.313 14.9955C262.171 14.6711 261.958 14.3825 261.69 14.1507C260.88 13.5264 259.961 13.0595 258.98 12.7741L257.95 12.4164C256.915 12.0731 255.959 11.5236 255.142 10.8012C254.773 10.4458 254.485 10.0148 254.298 9.53765C254.111 9.06055 254.029 8.54864 254.058 8.03699C254.054 7.26715 254.276 6.51301 254.698 5.86899C255.136 5.19768 255.741 4.65218 256.454 4.28635C257.239 3.88806 258.11 3.68714 258.991 3.70099C259.84 3.68268 260.682 3.86074 261.451 4.2213C262.093 4.52303 262.665 4.95493 263.131 5.48958C263.507 5.92509 263.794 6.42949 263.977 6.97467L262.188 7.74431C261.987 7.13555 261.61 6.60002 261.104 6.20503C260.506 5.73887 259.759 5.50411 259.001 5.54379C258.217 5.50937 257.447 5.75963 256.833 6.24839C256.556 6.45129 256.33 6.71735 256.176 7.02458C256.021 7.33181 255.942 7.6714 255.944 8.01531C255.939 8.31422 256.004 8.61025 256.134 8.87951C256.264 9.14877 256.455 9.38372 256.692 9.56543C257.385 10.0512 258.155 10.4176 258.969 10.6494L260.053 11.0071C261.256 11.3987 262.363 12.0375 263.305 12.8825C263.703 13.2818 264.013 13.7602 264.214 14.2868C264.416 14.8133 264.505 15.3763 264.476 15.9394C264.501 16.8812 264.22 17.8059 263.673 18.5735C263.148 19.2683 262.443 19.8077 261.635 20.1344C260.831 20.467 259.969 20.6365 259.099 20.6331C258.274 20.6552 257.455 20.5037 256.692 20.1886Z" fill="#676C72"/>
<path d="M269.123 20.4691C268.757 20.3245 268.422 20.111 268.137 19.8403C267.837 19.5548 267.611 19.2017 267.476 18.8105C267.318 18.3617 267.244 17.8877 267.259 17.4122V10.8215H265.264V9.07622H267.259V5.71582H269.167V9.07622H271.931V10.8215H269.167V16.9569C269.123 17.4668 269.257 17.9761 269.546 18.3986C269.688 18.5719 269.869 18.7087 270.075 18.7973C270.28 18.886 270.504 18.924 270.728 18.9081C271.158 18.9178 271.583 18.8051 271.952 18.5829V20.4474C271.726 20.5296 271.494 20.5948 271.259 20.6425C270.971 20.6814 270.681 20.6995 270.391 20.6967C269.958 20.7007 269.528 20.6235 269.123 20.4691Z" fill="#676C72"/>
<path d="M274.938 19.492C274.17 18.5547 273.783 17.3628 273.854 16.1532V9.07471H275.783V15.8389C275.783 17.9093 276.716 18.95 278.569 18.95C279.167 18.9594 279.752 18.777 280.239 18.4296C280.735 18.086 281.128 17.6139 281.377 17.0638C281.638 16.5113 281.775 15.9081 281.778 15.2969V9.07471H283.686V20.3375H281.865V18.6573H281.778C281.407 19.2654 280.884 19.7661 280.26 20.1098C279.604 20.4968 278.855 20.6991 278.092 20.6952C277.511 20.7338 276.928 20.6462 276.384 20.4386C275.839 20.2309 275.346 19.908 274.938 19.492Z" fill="#676C72"/>
<path d="M288.227 19.9275C287.393 19.3933 286.719 18.6444 286.275 17.7595C285.798 16.8055 285.549 15.7533 285.549 14.6863C285.549 13.6194 285.798 12.5671 286.275 11.6132C286.719 10.7283 287.393 9.97934 288.227 9.44519C289.026 8.93497 289.956 8.66762 290.904 8.67555C291.728 8.65815 292.543 8.85618 293.267 9.25007C293.906 9.58881 294.447 10.0851 294.839 10.6918H294.926L294.839 9.15252V4.04688H296.736V20.3069H294.926V18.6267H294.839C294.451 19.2426 293.909 19.7469 293.267 20.0901C292.541 20.4789 291.728 20.6766 290.904 20.6646C289.96 20.6768 289.032 20.4212 288.227 19.9275ZM293.05 18.4424C293.634 18.0832 294.107 17.5691 294.416 16.9573C294.752 16.253 294.926 15.4827 294.926 14.7026C294.926 13.9225 294.752 13.1523 294.416 12.4479C294.107 11.8391 293.634 11.3286 293.05 10.9736C292.494 10.6382 291.857 10.462 291.208 10.4642C290.553 10.4592 289.91 10.6396 289.354 10.9845C288.775 11.3496 288.304 11.8622 287.988 12.4696C287.653 13.1681 287.479 13.9331 287.479 14.708C287.479 15.4829 287.653 16.2479 287.988 16.9465C288.304 17.5539 288.775 18.0664 289.354 18.4316C289.91 18.7764 290.553 18.9568 291.208 18.9519C291.854 18.9639 292.491 18.7989 293.05 18.4749V18.4424Z" fill="#676C72"/>
<path d="M301.331 19.9274C300.475 19.4043 299.781 18.6537 299.326 17.7594C298.828 16.8068 298.579 15.7444 298.599 14.67C298.589 13.6294 298.823 12.6009 299.282 11.6673C299.719 10.7813 300.39 10.0316 301.223 9.49929C302.087 8.95263 303.094 8.67357 304.117 8.69714C305.124 8.671 306.119 8.92627 306.99 9.43426C307.811 9.92354 308.471 10.6435 308.887 11.5047C309.335 12.4719 309.557 13.5283 309.537 14.5941C309.559 14.745 309.559 14.8984 309.537 15.0494H300.594C300.597 15.8151 300.81 16.5653 301.212 17.2174C301.553 17.7533 302.032 18.1876 302.599 18.4748C303.141 18.76 303.743 18.9089 304.355 18.9084C305.041 18.9066 305.711 18.7087 306.287 18.3379C306.864 17.9672 307.322 17.4392 307.607 16.8163L309.309 17.6401C308.839 18.5235 308.148 19.2703 307.304 19.8081C306.381 20.3784 305.31 20.6649 304.225 20.632C303.215 20.6625 302.215 20.419 301.331 19.9274ZM307.499 13.4234C307.462 12.95 307.329 12.489 307.109 12.0684C306.861 11.5896 306.486 11.1883 306.025 10.9085C305.437 10.5673 304.763 10.4018 304.084 10.4315C303.286 10.4274 302.515 10.7167 301.916 11.2445C301.28 11.8058 300.862 12.5734 300.735 13.4125L307.499 13.4234Z" fill="#676C72"/>
<path d="M311.488 9.07664H313.331V10.7568H313.439C313.798 10.1469 314.315 9.64513 314.935 9.30428C315.594 8.92216 316.341 8.72027 317.103 8.71891C317.683 8.679 318.265 8.76597 318.807 8.97377C319.35 9.18157 319.841 9.50521 320.247 9.92216C321.004 10.8313 321.391 11.9924 321.331 13.1742V20.3069H319.423V13.4668C319.423 11.4398 318.48 10.4316 316.583 10.4316C315.999 10.4246 315.428 10.6072 314.957 10.952C314.482 11.305 314.109 11.7759 313.873 12.3178C313.585 12.8817 313.437 13.506 313.439 14.1389V20.3611H311.488V9.07664Z" fill="#676C72"/>
<path d="M326.348 20.4691C325.981 20.3272 325.646 20.1135 325.362 19.8403C325.059 19.5554 324.829 19.2024 324.69 18.8105C324.537 18.3604 324.464 17.8873 324.473 17.4122V10.8215H322.479V9.07622H324.473V5.71582H326.381V9.07622H329.145V10.8215H326.381V16.9569C326.343 17.4664 326.476 17.9739 326.76 18.3986C326.902 18.5719 327.083 18.7087 327.289 18.7973C327.495 18.886 327.719 18.924 327.942 18.9081C328.373 18.9178 328.798 18.8051 329.167 18.5829V20.4474C328.941 20.531 328.709 20.5963 328.473 20.6425C328.186 20.6814 327.896 20.6995 327.606 20.6967C327.176 20.7017 326.749 20.6244 326.348 20.4691Z" fill="#676C72"/>
<path d="M339.457 19.5602C338.184 18.8388 337.134 17.7813 336.422 16.5033C335.696 15.1733 335.315 13.6824 335.315 12.1673C335.315 10.6522 335.696 9.16127 336.422 7.8313C337.134 6.55331 338.184 5.4958 339.457 4.77442C340.754 4.03694 342.225 3.66248 343.717 3.69042C344.863 3.67682 345.999 3.91358 347.045 4.38418C348.046 4.83812 348.935 5.50817 349.646 6.34622L348.281 7.69039C347.742 6.99367 347.048 6.43302 346.253 6.05354C345.449 5.69528 344.576 5.51767 343.695 5.53322C342.558 5.51874 341.437 5.8028 340.443 6.35706C339.46 6.9084 338.647 7.7181 338.091 8.69851C337.522 9.76996 337.224 10.9648 337.224 12.1781C337.224 13.3915 337.522 14.5863 338.091 15.6578C338.647 16.6382 339.46 17.4479 340.443 17.9992C341.437 18.5535 342.558 18.8376 343.695 18.8231C344.665 18.8292 345.623 18.6135 346.497 18.1927C347.37 17.7719 348.136 17.157 348.736 16.3949L350.123 17.7607C349.374 18.6843 348.426 19.4256 347.348 19.9287C346.204 20.4591 344.956 20.7258 343.695 20.7092C342.205 20.7135 340.741 20.3166 339.457 19.5602Z" fill="#676C72"/>
<path d="M352.05 4.08936H353.979V20.3494H352.05V4.08936Z" fill="#676C72"/>
<path d="M357.546 19.492C356.778 18.5547 356.391 17.3628 356.462 16.1532V9.07471H358.391V15.8389C358.391 17.9093 359.324 18.95 361.177 18.95C361.775 18.9594 362.36 18.777 362.847 18.4296C363.343 18.086 363.736 17.6139 363.985 17.0638C364.246 16.5113 364.383 15.9081 364.386 15.2969V9.07471H366.294V20.3375H364.473V18.6573H364.386C364.015 19.2654 363.492 19.7661 362.868 20.1098C362.212 20.4968 361.463 20.6991 360.7 20.6952C360.119 20.7338 359.536 20.6462 358.991 20.4386C358.447 20.2309 357.954 19.908 357.546 19.492Z" fill="#676C72"/>
<path d="M372.399 20.1218C371.758 19.7813 371.219 19.2762 370.838 18.6584H370.751V20.3386H368.908V4.07861H370.892V9.18425L370.805 10.7235H370.892C371.29 10.1217 371.83 9.6266 372.464 9.28181C373.183 8.88546 373.995 8.6872 374.816 8.70729C375.769 8.70174 376.703 8.97287 377.504 9.48777C378.333 10.0279 379.005 10.7753 379.456 11.6558C379.933 12.6059 380.182 13.6546 380.182 14.7181C380.182 15.7815 379.933 16.8302 379.456 17.7804C379.005 18.6608 378.333 19.4083 377.504 19.9484C376.703 20.4633 375.769 20.7344 374.816 20.7289C373.971 20.7428 373.137 20.5334 372.399 20.1218ZM376.312 18.4741C376.891 18.109 377.362 17.5965 377.678 16.9891C378.013 16.2905 378.187 15.5255 378.187 14.7506C378.187 13.9757 378.013 13.2107 377.678 12.5121C377.362 11.9047 376.891 11.3922 376.312 11.0271C375.756 10.6822 375.113 10.5018 374.458 10.5067C373.809 10.5046 373.171 10.6808 372.615 11.0162C372.029 11.368 371.556 11.8793 371.25 12.4905C370.914 13.1948 370.74 13.9651 370.74 14.7452C370.74 15.5253 370.914 16.2955 371.25 16.9999C371.56 17.6115 372.037 18.1226 372.626 18.4741C373.182 18.8095 373.82 18.9858 374.469 18.9836C375.119 18.9898 375.757 18.8132 376.312 18.4741Z" fill="#676C72"/>
<path d="M382.888 19.7887C382.09 19.2371 381.481 18.4538 381.143 17.5448L382.844 16.7969C383.102 17.4554 383.547 18.0243 384.124 18.4337C384.654 18.8041 385.287 19.001 385.934 18.9974C386.567 19.0171 387.193 18.8513 387.733 18.5204C387.943 18.4058 388.119 18.2386 388.245 18.0352C388.37 17.8318 388.44 17.5993 388.449 17.3605C388.453 17.1507 388.406 16.9429 388.314 16.7544C388.222 16.5659 388.086 16.4021 387.918 16.2765C387.367 15.9002 386.742 15.6452 386.086 15.5286L384.546 15.1383C383.746 14.9591 383.002 14.587 382.378 14.0543C382.085 13.8018 381.852 13.4867 381.696 13.1321C381.54 12.7776 381.466 12.3926 381.479 12.0056C381.465 11.3566 381.68 10.7234 382.086 10.217C382.507 9.70355 383.057 9.31084 383.679 9.07878C384.372 8.81935 385.107 8.69071 385.847 8.69938C386.771 8.68491 387.683 8.91288 388.492 9.36061C389.255 9.78252 389.851 10.4516 390.183 11.2576L388.481 11.9839C388.268 11.4706 387.886 11.0459 387.397 10.7806C386.886 10.5255 386.321 10.3955 385.75 10.4013C385.186 10.3933 384.632 10.5395 384.145 10.824C383.941 10.9253 383.767 11.079 383.641 11.2694C383.515 11.4598 383.443 11.6802 383.43 11.908C383.423 12.0901 383.462 12.2709 383.544 12.4338C383.625 12.5968 383.746 12.7366 383.896 12.8403C384.351 13.1287 384.854 13.3342 385.381 13.4473L387.061 13.8592C387.999 14.0516 388.868 14.4935 389.576 15.1383C389.843 15.4055 390.053 15.7236 390.195 16.0737C390.336 16.4238 390.406 16.7987 390.4 17.1763C390.406 17.8104 390.209 18.4298 389.836 18.9432C389.428 19.4957 388.877 19.9266 388.243 20.1898C387.514 20.5026 386.727 20.6578 385.934 20.6451C384.853 20.6955 383.784 20.3951 382.888 19.7887Z" fill="#676C72"/>
</svg>
