<?xml version="1.0" encoding="UTF-8"?>
<svg id="Layer_2" data-name="Layer 2" xmlns="http://www.w3.org/2000/svg" xmlns:xlink="http://www.w3.org/1999/xlink" viewBox="0 0 385.05 271.5">
  <defs>
    <style>
      .cls-1 {
        fill: #393939;
      }

      .cls-1, .cls-2 {
        stroke-width: 0px;
      }

      .cls-2 {
        fill: #fff;
      }

      .cls-3 {
        fill: none;
        stroke: #393939;
        stroke-width: 51px;
      }

      .cls-4 {
        mask: url(#mask);
      }
    </style>
    <mask id="mask" x="0" y="0" width="260.43" height="271.5" maskUnits="userSpaceOnUse">
      <g id="path-2-inside-1_14_277" data-name="path-2-inside-1 14 277">
        <path class="cls-2" d="M225.94,181.72c-10.07,23.05-27.4,41.75-49.06,52.95-21.67,11.2-46.35,14.21-69.89,8.54-23.54-5.68-44.49-19.7-59.33-39.71-14.84-20.01-22.65-44.77-22.13-70.13.52-25.35,9.35-49.74,25-69.06s37.16-32.37,60.91-36.98c23.75-4.6,48.29-.47,69.47,11.7,21.19,12.17,37.73,31.64,46.84,55.13l-25.2,10.77c-6.75-17.4-19.01-31.82-34.7-40.85-15.7-9.02-33.88-12.08-51.47-8.67-17.6,3.41-33.53,13.09-45.13,27.4-11.6,14.31-18.14,32.38-18.52,51.16s5.4,37.13,16.4,51.96c10.99,14.82,26.52,25.21,43.96,29.42,17.44,4.21,35.73,1.97,51.78-6.32,16.05-8.3,28.89-22.15,36.35-39.23l24.73,11.91Z"/>
      </g>
    </mask>
  </defs>
  <g id="Layer_1-2" data-name="Layer 1">
    <g>
      <g class="cls-4">
        <path class="cls-3" d="M225.94,181.72c-10.07,23.05-27.4,41.75-49.06,52.95-21.67,11.2-46.35,14.21-69.89,8.54-23.54-5.68-44.49-19.7-59.33-39.71-14.84-20.01-22.65-44.77-22.13-70.13.52-25.35,9.35-49.74,25-69.06s37.16-32.37,60.91-36.98c23.75-4.6,48.29-.47,69.47,11.7,21.19,12.17,37.73,31.64,46.84,55.13l-25.2,10.77c-6.75-17.4-19.01-31.82-34.7-40.85-15.7-9.02-33.88-12.08-51.47-8.67-17.6,3.41-33.53,13.09-45.13,27.4-11.6,14.31-18.14,32.38-18.52,51.16s5.4,37.13,16.4,51.96c10.99,14.82,26.52,25.21,43.96,29.42,17.44,4.21,35.73,1.97,51.78-6.32,16.05-8.3,28.89-22.15,36.35-39.23l24.73,11.91Z"/>
      </g>
      <path class="cls-1" d="M226.38,148.33c-1.85,0-3.53-.42-5.04-1.26-1.49-.84-2.66-2.03-3.53-3.56-.84-1.56-1.26-3.36-1.26-5.4s.43-3.79,1.3-5.33c.89-1.56,2.09-2.75,3.6-3.56,1.51-.84,3.2-1.26,5.08-1.26s3.56.42,5.08,1.26c1.51.82,2.7,1.99,3.56,3.53.89,1.54,1.33,3.32,1.33,5.36s-.46,3.84-1.37,5.4c-.89,1.54-2.1,2.73-3.64,3.56-1.54.84-3.24,1.26-5.11,1.26ZM226.38,145.44c1.18,0,2.28-.27,3.31-.83s1.86-1.38,2.48-2.48c.65-1.1.97-2.45.97-4.03s-.31-2.93-.94-4.03c-.62-1.1-1.44-1.92-2.45-2.45-1.01-.55-2.1-.83-3.28-.83s-2.3.28-3.31.83c-.98.53-1.78,1.34-2.38,2.45s-.9,2.45-.9,4.03.29,2.96.86,4.07c.6,1.1,1.39,1.93,2.38,2.48.98.53,2.06.79,3.24.79ZM239.58,138.07c0-2.02.41-3.78,1.22-5.29.82-1.54,1.93-2.72,3.35-3.56,1.44-.84,3.05-1.26,4.82-1.26,1.54,0,2.96.36,4.28,1.08,1.32.7,2.33,1.62,3.02,2.77v-10.44h3.31v26.64h-3.31v-3.71c-.65,1.18-1.61,2.15-2.88,2.92-1.27.74-2.76,1.12-4.46,1.12s-3.35-.43-4.79-1.3c-1.42-.86-2.53-2.07-3.35-3.63-.82-1.56-1.22-3.34-1.22-5.33ZM256.28,138.1c0-1.49-.3-2.78-.9-3.89s-1.42-1.94-2.45-2.52c-1.01-.6-2.12-.9-3.35-.9s-2.34.29-3.35.86-1.81,1.42-2.41,2.52c-.6,1.1-.9,2.4-.9,3.89s.3,2.83.9,3.96c.6,1.1,1.4,1.96,2.41,2.56,1.01.58,2.12.86,3.35.86s2.34-.29,3.35-.86c1.03-.6,1.85-1.45,2.45-2.56.6-1.13.9-2.44.9-3.92ZM283.13,137.38c0,.62-.04,1.28-.11,1.98h-15.77c.12,1.95.78,3.47,1.98,4.57,1.23,1.08,2.7,1.62,4.43,1.62,1.42,0,2.59-.32,3.53-.97.96-.67,1.63-1.56,2.02-2.66h3.53c-.53,1.9-1.58,3.44-3.17,4.65-1.58,1.18-3.55,1.76-5.9,1.76-1.87,0-3.55-.42-5.04-1.26-1.46-.84-2.62-2.03-3.46-3.56-.84-1.56-1.26-3.36-1.26-5.4s.41-3.83,1.22-5.36c.82-1.54,1.96-2.71,3.42-3.53,1.49-.84,3.19-1.26,5.11-1.26s3.53.41,4.97,1.22c1.44.82,2.54,1.94,3.31,3.38.79,1.41,1.19,3.02,1.19,4.82ZM279.74,136.7c0-1.25-.28-2.32-.83-3.2-.55-.91-1.31-1.6-2.27-2.05-.94-.48-1.98-.72-3.13-.72-1.65,0-3.07.53-4.25,1.59-1.15,1.05-1.81,2.52-1.98,4.39h12.46ZM294.44,148.33c-1.51,0-2.87-.25-4.07-.76-1.2-.53-2.15-1.25-2.84-2.16-.7-.94-1.08-2-1.15-3.2h3.38c.1.98.55,1.79,1.37,2.41.84.62,1.93.94,3.28.94,1.25,0,2.23-.28,2.95-.83.72-.55,1.08-1.25,1.08-2.09s-.38-1.5-1.15-1.91c-.77-.43-1.96-.85-3.56-1.26-1.46-.38-2.66-.77-3.6-1.15-.91-.41-1.7-1-2.38-1.76-.65-.79-.97-1.82-.97-3.1,0-1.01.3-1.93.9-2.77s1.45-1.5,2.56-1.98c1.1-.5,2.36-.76,3.78-.76,2.18,0,3.95.55,5.29,1.65,1.34,1.1,2.06,2.62,2.16,4.54h-3.28c-.07-1.03-.49-1.86-1.26-2.48-.74-.62-1.75-.94-3.02-.94-1.18,0-2.11.25-2.81.76s-1.04,1.16-1.04,1.98c0,.65.2,1.19.61,1.62.43.41.96.74,1.58,1.01.65.24,1.54.52,2.66.83,1.42.38,2.57.77,3.46,1.15.89.36,1.64.91,2.27,1.65.65.74.98,1.72,1.01,2.92,0,1.08-.3,2.05-.9,2.92-.6.86-1.45,1.55-2.56,2.05-1.08.48-2.33.72-3.74.72ZM316.05,127.91c1.49,0,2.83.32,4.03.97,1.2.62,2.14,1.57,2.81,2.85.7,1.27,1.04,2.82,1.04,4.64v11.63h-3.24v-11.16c0-1.97-.49-3.47-1.48-4.5-.98-1.06-2.33-1.58-4.03-1.58s-3.11.54-4.14,1.62c-1.01,1.08-1.51,2.65-1.51,4.72v10.91h-3.28v-26.64h3.28v9.72c.65-1.01,1.54-1.79,2.66-2.34,1.15-.55,2.44-.83,3.85-.83ZM328.06,138.07c0-2.02.41-3.78,1.22-5.29.82-1.54,1.93-2.72,3.35-3.56,1.44-.84,3.04-1.26,4.79-1.26s3.23.37,4.5,1.12c1.27.74,2.22,1.68,2.84,2.81v-3.6h3.31v19.73h-3.31v-3.67c-.65,1.15-1.62,2.11-2.92,2.88-1.27.74-2.76,1.12-4.46,1.12s-3.34-.43-4.75-1.3c-1.42-.86-2.53-2.07-3.35-3.63-.82-1.56-1.22-3.34-1.22-5.33ZM344.77,138.1c0-1.49-.3-2.78-.9-3.89-.6-1.1-1.42-1.94-2.45-2.52-1.01-.6-2.12-.9-3.35-.9s-2.34.29-3.35.86c-1.01.58-1.81,1.42-2.41,2.52-.6,1.1-.9,2.4-.9,3.89s.3,2.83.9,3.96c.6,1.1,1.4,1.96,2.41,2.56,1.01.58,2.12.86,3.35.86s2.34-.29,3.35-.86c1.03-.6,1.85-1.45,2.45-2.56.6-1.13.9-2.44.9-3.92ZM356.89,131.48c.58-1.13,1.39-2,2.45-2.63,1.08-.62,2.39-.94,3.92-.94v3.38h-.86c-3.67,0-5.51,1.99-5.51,5.98v10.73h-3.27v-19.73h3.27v3.21h0ZM385.05,137.38c0,.62-.04,1.28-.11,1.98h-15.77c.12,1.95.78,3.47,1.98,4.57,1.22,1.08,2.7,1.62,4.43,1.62,1.42,0,2.59-.32,3.53-.97.96-.67,1.63-1.56,2.02-2.66h3.53c-.53,1.9-1.58,3.44-3.17,4.65-1.58,1.18-3.55,1.76-5.9,1.76-1.87,0-3.55-.42-5.04-1.26-1.46-.84-2.62-2.03-3.46-3.56-.84-1.56-1.26-3.36-1.26-5.4s.41-3.83,1.22-5.36c.82-1.54,1.96-2.71,3.42-3.53,1.49-.84,3.19-1.26,5.11-1.26s3.53.41,4.97,1.22c1.44.82,2.54,1.94,3.31,3.38.79,1.41,1.19,3.02,1.19,4.82ZM381.66,136.7c0-1.25-.28-2.32-.83-3.2-.55-.91-1.31-1.6-2.27-2.05-.94-.48-1.98-.72-3.13-.72-1.65,0-3.07.53-4.25,1.59-1.15,1.05-1.81,2.52-1.98,4.39h12.46Z"/>
    </g>
  </g>
</svg>