<?xml version="1.0" encoding="utf-8"?>
<!-- Generator: Adobe Illustrator 16.0.0, SVG Export Plug-In . SVG Version: 6.00 Build 0)  -->
<!DOCTYPE svg PUBLIC "-//W3C//DTD SVG 1.1//EN" "http://www.w3.org/Graphics/SVG/1.1/DTD/svg11.dtd">
<svg version="1.1" id="Layer_1" xmlns="http://www.w3.org/2000/svg" xmlns:xlink="http://www.w3.org/1999/xlink" x="0px" y="0px"
	 width="627px" height="305px" viewBox="0 0 627 305" enable-background="new 0 0 627 305" xml:space="preserve">
<path display="none" fill="#E6E6E6" d="M20,0h587c11.046,0,20,8.954,20,20v265c0,11.046-8.954,20-20,20H20c-11.046,0-20-8.954-20-20
	V20C0,8.954,8.954,0,20,0z"/>
<defs>
	<filter id="Adobe_OpacityMaskFilter" filterUnits="userSpaceOnUse" x="42" y="34.5" width="260.431" height="271.5">
		<feColorMatrix  type="matrix" values="1 0 0 0 0  0 1 0 0 0  0 0 1 0 0  0 0 0 1 0"/>
	</filter>
</defs>
<mask maskUnits="userSpaceOnUse" x="42" y="34.5" width="260.431" height="271.5" id="path-2-inside-1_14_277">
	<path fill="#FFFFFF" filter="url(#Adobe_OpacityMaskFilter)" d="M267.939,216.215c-10.069,23.049-27.397,41.749-49.064,52.949
		c-21.668,11.2-46.35,14.215-69.888,8.536c-23.537-5.679-44.491-19.703-59.33-39.71c-14.838-20.008-22.655-44.774-22.133-70.126
		c0.523-25.353,9.353-49.74,25.002-69.055s37.162-32.374,60.911-36.978c23.75-4.604,48.285-0.471,69.47,11.703
		c21.186,12.174,37.728,31.644,46.837,55.129l-25.196,10.775c-6.749-17.4-19.005-31.825-34.701-40.845
		c-15.697-9.02-33.875-12.082-51.471-8.671c-17.595,3.411-33.534,13.086-45.128,27.396c-11.595,14.31-18.137,32.379-18.524,51.163
		s5.404,37.133,16.398,51.957c10.994,14.822,26.519,25.213,43.957,29.42c17.439,4.207,35.726,1.974,51.78-6.323
		c16.053-8.298,28.892-22.153,36.352-39.231L267.939,216.215z"/>
</mask>
<path mask="url(#path-2-inside-1_14_277)" fill="none" stroke="#393939" stroke-width="51" d="M267.939,216.215
	c-10.069,23.049-27.397,41.749-49.064,52.949c-21.668,11.2-46.35,14.215-69.888,8.536c-23.537-5.679-44.491-19.703-59.33-39.71
	c-14.838-20.008-22.655-44.774-22.133-70.126c0.523-25.353,9.353-49.74,25.002-69.055s37.162-32.374,60.911-36.978
	c23.75-4.604,48.285-0.471,69.47,11.703c21.186,12.174,37.728,31.644,46.837,55.129l-25.196,10.775
	c-6.749-17.4-19.005-31.825-34.701-40.845c-15.697-9.02-33.875-12.082-51.471-8.671c-17.595,3.411-33.534,13.086-45.128,27.396
	c-11.595,14.31-18.137,32.379-18.524,51.163s5.404,37.133,16.398,51.957c10.994,14.822,26.519,25.213,43.957,29.42
	c17.439,4.207,35.726,1.974,51.78-6.323c16.053-8.298,28.892-22.153,36.352-39.231L267.939,216.215z"/>
<path fill="#393939" d="M268.376,182.824c-1.848,0-3.528-0.42-5.04-1.26c-1.488-0.84-2.664-2.028-3.528-3.564
	c-0.84-1.561-1.26-3.359-1.26-5.4c0-2.016,0.432-3.791,1.296-5.328c0.888-1.56,2.088-2.748,3.6-3.563
	c1.512-0.84,3.204-1.26,5.076-1.26s3.564,0.42,5.076,1.26c1.512,0.815,2.7,1.992,3.564,3.528c0.888,1.535,1.332,3.324,1.332,5.363
	c0,2.041-0.456,3.84-1.368,5.4c-0.888,1.536-2.1,2.725-3.636,3.564C271.952,182.404,270.248,182.824,268.376,182.824z
	 M268.376,179.943c1.176,0,2.28-0.275,3.312-0.827c1.032-0.552,1.86-1.38,2.484-2.484c0.648-1.104,0.972-2.448,0.972-4.032
	s-0.312-2.928-0.936-4.031c-0.624-1.104-1.44-1.92-2.448-2.448c-1.008-0.552-2.1-0.828-3.276-0.828c-1.2,0-2.304,0.276-3.312,0.828
	c-0.984,0.528-1.776,1.344-2.376,2.448c-0.6,1.104-0.9,2.447-0.9,4.031c0,1.608,0.288,2.965,0.864,4.068
	c0.6,1.104,1.392,1.932,2.376,2.484C266.12,179.68,267.2,179.943,268.376,179.943z M281.575,172.564c0-2.017,0.408-3.78,1.224-5.293
	c0.816-1.535,1.932-2.724,3.348-3.563c1.44-0.84,3.048-1.26,4.824-1.26c1.536,0,2.964,0.36,4.284,1.079
	c1.32,0.697,2.328,1.621,3.024,2.772v-10.44h3.312V182.5h-3.312v-3.708c-0.648,1.176-1.608,2.147-2.88,2.916
	c-1.272,0.744-2.76,1.116-4.464,1.116c-1.752,0-3.348-0.432-4.788-1.297c-1.416-0.863-2.532-2.075-3.348-3.635
	C281.983,176.332,281.575,174.557,281.575,172.564z M298.279,172.6c0-1.488-0.3-2.783-0.9-3.888s-1.416-1.944-2.448-2.521
	c-1.008-0.6-2.124-0.899-3.348-0.899s-2.34,0.288-3.348,0.864c-1.008,0.576-1.812,1.416-2.412,2.52c-0.6,1.104-0.9,2.4-0.9,3.889
	c0,1.512,0.3,2.832,0.9,3.959c0.6,1.104,1.404,1.957,2.412,2.557c1.008,0.576,2.124,0.863,3.348,0.863s2.34-0.287,3.348-0.863
	c1.032-0.6,1.848-1.452,2.448-2.557C297.979,175.396,298.279,174.088,298.279,172.6z M325.127,171.88
	c0,0.624-0.036,1.284-0.107,1.979h-15.769c0.12,1.945,0.78,3.469,1.979,4.572c1.225,1.08,2.7,1.62,4.429,1.62
	c1.416,0,2.592-0.323,3.528-0.972c0.959-0.672,1.632-1.561,2.016-2.664h3.527c-0.527,1.896-1.584,3.443-3.168,4.645
	c-1.584,1.176-3.552,1.764-5.903,1.764c-1.872,0-3.552-0.42-5.04-1.26c-1.464-0.84-2.616-2.028-3.456-3.564
	c-0.84-1.561-1.26-3.359-1.26-5.4c0-2.039,0.408-3.828,1.224-5.363c0.816-1.536,1.956-2.713,3.42-3.528
	c1.488-0.84,3.192-1.26,5.112-1.26c1.872,0,3.528,0.407,4.968,1.224c1.44,0.816,2.544,1.944,3.313,3.385
	C324.73,168.473,325.127,170.08,325.127,171.88z M321.743,171.195c0-1.247-0.276-2.315-0.828-3.203
	c-0.552-0.912-1.308-1.596-2.269-2.053c-0.936-0.479-1.979-0.72-3.132-0.72c-1.655,0-3.071,0.528-4.248,1.585
	c-1.151,1.055-1.812,2.52-1.979,4.391H321.743z M336.436,182.824c-1.512,0-2.867-0.252-4.067-0.756
	c-1.2-0.528-2.148-1.248-2.844-2.16c-0.696-0.936-1.08-2.004-1.152-3.204h3.384c0.096,0.983,0.552,1.788,1.368,2.412
	c0.84,0.624,1.932,0.936,3.276,0.936c1.248,0,2.231-0.276,2.951-0.827c0.721-0.553,1.08-1.248,1.08-2.089
	c0-0.864-0.384-1.5-1.151-1.907c-0.769-0.433-1.956-0.853-3.564-1.261c-1.464-0.384-2.664-0.768-3.6-1.151
	c-0.912-0.408-1.704-0.996-2.376-1.765c-0.648-0.792-0.973-1.823-0.973-3.096c0-1.008,0.301-1.933,0.9-2.772s1.452-1.5,2.556-1.979
	c1.104-0.504,2.364-0.756,3.78-0.756c2.184,0,3.948,0.552,5.292,1.655c1.344,1.104,2.064,2.616,2.16,4.537h-3.276
	c-0.071-1.033-0.492-1.86-1.26-2.484c-0.744-0.624-1.752-0.937-3.023-0.937c-1.177,0-2.112,0.253-2.809,0.757
	s-1.044,1.164-1.044,1.979c0,0.647,0.204,1.188,0.612,1.62c0.432,0.408,0.96,0.744,1.584,1.008c0.647,0.24,1.536,0.516,2.664,0.828
	c1.416,0.384,2.567,0.768,3.456,1.152c0.888,0.359,1.644,0.912,2.268,1.655c0.648,0.744,0.984,1.716,1.008,2.916
	c0,1.08-0.3,2.052-0.899,2.916c-0.601,0.864-1.452,1.548-2.557,2.052C339.1,182.584,337.852,182.824,336.436,182.824z
	 M358.052,162.412c1.488,0,2.832,0.324,4.032,0.972c1.2,0.624,2.136,1.572,2.808,2.845c0.696,1.271,1.044,2.819,1.044,4.644V182.5
	h-3.239v-11.16c0-1.968-0.492-3.468-1.477-4.5c-0.983-1.056-2.328-1.584-4.032-1.584c-1.728,0-3.107,0.54-4.14,1.62
	c-1.008,1.08-1.512,2.651-1.512,4.716V182.5h-3.276v-26.641h3.276v9.721c0.647-1.008,1.536-1.788,2.664-2.34
	C355.352,162.688,356.636,162.412,358.052,162.412z M370.064,172.564c0-2.017,0.407-3.78,1.224-5.293
	c0.815-1.535,1.932-2.724,3.348-3.563c1.44-0.84,3.036-1.26,4.788-1.26c1.729,0,3.229,0.372,4.5,1.116
	c1.272,0.744,2.221,1.68,2.844,2.808v-3.601h3.313V182.5h-3.313v-3.672c-0.647,1.152-1.619,2.111-2.916,2.88
	c-1.271,0.744-2.76,1.116-4.464,1.116c-1.752,0-3.336-0.432-4.752-1.297c-1.416-0.863-2.532-2.075-3.348-3.635
	C370.472,176.332,370.064,174.557,370.064,172.564z M386.768,172.6c0-1.488-0.3-2.783-0.899-3.888
	c-0.601-1.104-1.416-1.944-2.448-2.521c-1.008-0.6-2.124-0.899-3.348-0.899c-1.225,0-2.34,0.288-3.349,0.864
	c-1.008,0.576-1.812,1.416-2.411,2.52c-0.601,1.104-0.9,2.4-0.9,3.889c0,1.512,0.3,2.832,0.9,3.959
	c0.6,1.104,1.403,1.957,2.411,2.557c1.009,0.576,2.124,0.863,3.349,0.863c1.224,0,2.34-0.287,3.348-0.863
	c1.032-0.6,1.848-1.452,2.448-2.557C386.468,175.396,386.768,174.088,386.768,172.6z M398.892,165.977
	c0.576-1.129,1.393-2.004,2.448-2.629c1.08-0.623,2.389-0.936,3.924-0.936v3.384H404.4c-3.672,0-5.509,1.992-5.509,5.976V182.5
	h-3.275v-19.729h3.275V165.977z M427.045,171.88c0,0.624-0.036,1.284-0.107,1.979h-15.769c0.12,1.945,0.78,3.469,1.98,4.572
	c1.224,1.08,2.699,1.62,4.428,1.62c1.416,0,2.592-0.323,3.528-0.972c0.96-0.672,1.632-1.561,2.016-2.664h3.528
	c-0.528,1.896-1.584,3.443-3.169,4.645c-1.584,1.176-3.552,1.764-5.903,1.764c-1.872,0-3.552-0.42-5.04-1.26
	c-1.464-0.84-2.616-2.028-3.456-3.564c-0.84-1.561-1.26-3.359-1.26-5.4c0-2.039,0.407-3.828,1.224-5.363
	c0.816-1.536,1.956-2.713,3.42-3.528c1.488-0.84,3.192-1.26,5.112-1.26c1.872,0,3.528,0.407,4.968,1.224
	c1.44,0.816,2.544,1.944,3.313,3.385C426.649,168.473,427.045,170.08,427.045,171.88z M423.661,171.195
	c0-1.247-0.276-2.315-0.828-3.203c-0.552-0.912-1.308-1.596-2.268-2.053c-0.937-0.479-1.98-0.72-3.133-0.72
	c-1.655,0-3.071,0.528-4.248,1.585c-1.151,1.055-1.812,2.52-1.979,4.391H423.661z"/>
</svg>
